<?xml version="1.0" encoding="UTF-8" standalone="no"?>
<!-- Created with Inkscape (http://www.inkscape.org/) -->

<svg
   xmlns:dc="http://purl.org/dc/elements/1.1/"
   xmlns:cc="http://creativecommons.org/ns#"
   xmlns:rdf="http://www.w3.org/1999/02/22-rdf-syntax-ns#"
   xmlns:svg="http://www.w3.org/2000/svg"
   xmlns="http://www.w3.org/2000/svg"
   xmlns:sodipodi="http://sodipodi.sourceforge.net/DTD/sodipodi-0.dtd"
   xmlns:inkscape="http://www.inkscape.org/namespaces/inkscape"
   width="24"
   height="24"
   viewBox="0 0 6.3499999 6.3500002"
   version="1.1"
   id="svg8"
   inkscape:version="0.92.5 (2060ec1f9f, 2020-04-08)"
   sodipodi:docname="arrow_right.svg">
  <defs
     id="defs2" />
  <sodipodi:namedview
     id="base"
     pagecolor="#ffffff"
     bordercolor="#666666"
     borderopacity="1.0"
     inkscape:pageopacity="0.0"
     inkscape:pageshadow="2"
     inkscape:zoom="19.88"
     inkscape:cx="-15.906542"
     inkscape:cy="3.0918432"
     inkscape:document-units="mm"
     inkscape:current-layer="layer1"
     showgrid="false"
     inkscape:window-width="1920"
     inkscape:window-height="1025"
     inkscape:window-x="0"
     inkscape:window-y="30"
     inkscape:window-maximized="1"
     units="px"
     showborder="true"
     inkscape:showpageshadow="false"
     borderlayer="true" />
  <metadata
     id="metadata5">
    <rdf:RDF>
      <cc:Work
         rdf:about="">
        <dc:format>image/svg+xml</dc:format>
        <dc:type
           rdf:resource="http://purl.org/dc/dcmitype/StillImage" />
        <dc:title></dc:title>
      </cc:Work>
    </rdf:RDF>
  </metadata>
  <g
     inkscape:label="Layer 1"
     inkscape:groupmode="layer"
     id="layer1"
     transform="translate(0,-290.64998)">
    <path
       style="opacity:1;fill:#ffffff;fill-opacity:1;stroke:none;stroke-width:0.93655372;stroke-miterlimit:4;stroke-dasharray:none"
       d="m 6.0854166,293.82498 a 2.9104166,2.9104166 0 0 1 -2.9104167,2.91042 2.9104166,2.9104166 0 0 1 -2.91041657,-2.91042 2.9104166,2.9104166 0 0 1 2.91041657,-2.91042 2.9104166,2.9104166 0 0 1 2.9104167,2.91042 z m -0.9260417,0.006 -0.00103,-0.007 c 0.002,-0.0412 -0.02121,-0.0794 -0.05271,-0.10594 -0.52472,-0.45784 -1.5842985,-1.37249 -2.1083984,-1.84433 -0.05172,-0.0458 -0.1311674,-0.0439 -0.1808676,0.004 l -0.341581,0.33797 c -0.0549,0.0534 -0.0571,0.14213 0,0.19327 l 1.1435993,1.01802 H 1.3213699 c -0.07266,7.9e-4 -0.1310214,0.0596 -0.1307414,0.13229 v 0.52917 c -2.8e-4,0.0727 0.058041,0.1315 0.1307414,0.13229 h 2.2970138 l -1.1435993,1.01234 c -0.0563,0.0504 -0.053,0.13739 0,0.19121 l 0.341581,0.34571 c 0.04942,0.0498 0.1283677,0.0527 0.1808676,0.006 0.53027,-0.46203 1.5806284,-1.35862 2.1083984,-1.8464 0.0255,-0.0232 0.051743,-0.0648 0.053743,-0.0992 z"
       id="path834"
       inkscape:connector-curvature="0" />
  </g>
</svg>
