<?xml version="1.0" encoding="UTF-8" standalone="no"?>
<svg
   xmlns:dc="http://purl.org/dc/elements/1.1/"
   xmlns:cc="http://creativecommons.org/ns#"
   xmlns:rdf="http://www.w3.org/1999/02/22-rdf-syntax-ns#"
   xmlns:svg="http://www.w3.org/2000/svg"
   xmlns="http://www.w3.org/2000/svg"
   xmlns:sodipodi="http://sodipodi.sourceforge.net/DTD/sodipodi-0.dtd"
   xmlns:inkscape="http://www.inkscape.org/namespaces/inkscape"
   aria-hidden="true"
   focusable="false"
   data-prefix="fas"
   data-icon="envelope"
   class="svg-inline--fa fa-envelope fa-w-16"
   role="img"
   viewBox="0 0 24 24"
   id="svg2"
   version="1.1"
   inkscape:version="0.92.5 (2060ec1f9f, 2020-04-08)"
   sodipodi:docname="mail.svg"
   width="24"
   height="24">
  <metadata
     id="metadata10">
    <rdf:RDF>
      <cc:Work
         rdf:about="">
        <dc:format>image/svg+xml</dc:format>
        <dc:type
           rdf:resource="http://purl.org/dc/dcmitype/StillImage" />
        <dc:title></dc:title>
      </cc:Work>
    </rdf:RDF>
  </metadata>
  <defs
     id="defs8" />
  <sodipodi:namedview
     pagecolor="#ffffff"
     bordercolor="#666666"
     borderopacity="1"
     objecttolerance="10"
     gridtolerance="10"
     guidetolerance="10"
     inkscape:pageopacity="0"
     inkscape:pageshadow="2"
     inkscape:window-width="1920"
     inkscape:window-height="1023"
     id="namedview6"
     showgrid="false"
     inkscape:showpageshadow="false"
     inkscape:zoom="20.68"
     inkscape:cx="6.1750488"
     inkscape:cy="7.6360391"
     inkscape:window-x="0"
     inkscape:window-y="30"
     inkscape:window-maximized="1"
     inkscape:current-layer="svg2" />
  <path
     id="path4"
     style="fill:#ffffff"
     d="m 12,14.75 c 0.99687,0.0172 2.43203,-1.25469 3.15391,-1.77891 C 20.85586,8.8331998 21.28984,8.4722698 22.60469,7.4410198 22.85391,7.2476598 23,6.9468698 23,6.6289098 V 5.412 C 23,4.27333 22.47667,3.7499998 21.338,3.7499998 H 2.662 C 1.52333,3.7499998 0.99999982,4.27333 0.99999982,5.412 v 1.2169098 c 0,0.31796 0.14608998,0.61445 0.39530998,0.81211 1.31485,1.02695 1.74883,1.39218 7.45078,5.5300702 C 9.5679698,13.49531 11.00312,14.76719 12,14.75 Z M 22.71875,9.1445312 c -0.04693,0.00379 -0.09287,0.021385 -0.134766,0.054688 -0.9625,0.7476504 -2.234377,1.7007848 -6.617187,4.8847648 C 15.094527,14.719924 13.53398,16.141806 12,16.128906 10.47461,16.137496 8.9457025,14.745704 8.0390625,14.083984 3.6562525,10.900004 2.3785156,9.9507854 1.4160156,9.203125 1.2441356,9.069925 1,9.1894469 1,9.4042969 V 18.588 c 0,1.13867 0.52333,1.661985 1.662,1.662 l 18.676,2.5e-4 C 22.47667,20.250265 23,19.72667 23,18.588 V 9.4003906 C 23,9.2421781 22.859541,9.1331556 22.71875,9.1445312 Z"
     inkscape:connector-curvature="0"
     sodipodi:nodetypes="cccsssssscccccccccssssssc" />
</svg>
