<?xml version="1.0" encoding="UTF-8" standalone="no"?>
<!-- Created with Inkscape (http://www.inkscape.org/) -->

<svg
   xmlns:dc="http://purl.org/dc/elements/1.1/"
   xmlns:cc="http://creativecommons.org/ns#"
   xmlns:rdf="http://www.w3.org/1999/02/22-rdf-syntax-ns#"
   xmlns:svg="http://www.w3.org/2000/svg"
   xmlns="http://www.w3.org/2000/svg"
   xmlns:sodipodi="http://sodipodi.sourceforge.net/DTD/sodipodi-0.dtd"
   xmlns:inkscape="http://www.inkscape.org/namespaces/inkscape"
   width="24"
   height="24"
   viewBox="0 0 6.3499999 6.3500002"
   version="1.1"
   id="svg8"
   inkscape:version="0.92.5 (2060ec1f9f, 2020-04-08)"
   sodipodi:docname="house.svg">
  <defs
     id="defs2" />
  <sodipodi:namedview
     id="base"
     pagecolor="#ffffff"
     bordercolor="#666666"
     borderopacity="1.0"
     inkscape:pageopacity="0.0"
     inkscape:pageshadow="2"
     inkscape:zoom="24.48"
     inkscape:cx="7.0545339"
     inkscape:cy="13.349991"
     inkscape:document-units="mm"
     inkscape:current-layer="layer1"
     showgrid="false"
     inkscape:window-width="1920"
     inkscape:window-height="1025"
     inkscape:window-x="0"
     inkscape:window-y="30"
     inkscape:window-maximized="1"
     units="px"
     showborder="true"
     inkscape:showpageshadow="false"
     borderlayer="true"
     showguides="false" />
  <metadata
     id="metadata5">
    <rdf:RDF>
      <cc:Work
         rdf:about="">
        <dc:format>image/svg+xml</dc:format>
        <dc:type
           rdf:resource="http://purl.org/dc/dcmitype/StillImage" />
        <dc:title></dc:title>
      </cc:Work>
    </rdf:RDF>
  </metadata>
  <g
     inkscape:label="Layer 1"
     inkscape:groupmode="layer"
     id="layer1"
     transform="translate(0,-290.64998)">
    <path
       style="opacity:1;fill:#ffffff;fill-opacity:1;stroke:none;stroke-width:0.11563718;stroke-linecap:round;stroke-linejoin:round;stroke-miterlimit:4;stroke-dasharray:none;stroke-opacity:1;paint-order:normal"
       d="m 3.6948408,290.91456 c -0.059508,0 -0.1074823,0.048 -0.1074823,0.10749 v 0.60048 H 1.4873206 c -0.081969,0 -0.1333107,0.0757 -0.1741419,0.14573 l -1.0376171,1.7787 c -0.0408238,0.07 0.0394648,0.17208 0.12143428,0.17208 H 1.0584251 v 2.87063 c 0,0.0807 0.065041,0.14573 0.1457211,0.14573 h 3.941705 c 0.08068,0 0.145721,-0.0651 0.145721,-0.14573 v -2.87063 h 0.6614293 c 0.081969,0 0.1622655,-0.10208 0.1214341,-0.17208 l -1.0376171,-1.7787 c -0.040877,-0.0701 -0.092173,-0.14573 -0.1741419,-0.14573 h -0.481603 v -0.60048 c 0,-0.0595 -0.047974,-0.10749 -0.1074822,-0.10749 z"
       id="rect2317"
       inkscape:connector-curvature="0" />
  </g>
</svg>
