<?xml version="1.0" encoding="UTF-8" standalone="no"?>
<!-- Created with Inkscape (http://www.inkscape.org/) -->

<svg
   xmlns:dc="http://purl.org/dc/elements/1.1/"
   xmlns:cc="http://creativecommons.org/ns#"
   xmlns:rdf="http://www.w3.org/1999/02/22-rdf-syntax-ns#"
   xmlns:svg="http://www.w3.org/2000/svg"
   xmlns="http://www.w3.org/2000/svg"
   xmlns:sodipodi="http://sodipodi.sourceforge.net/DTD/sodipodi-0.dtd"
   xmlns:inkscape="http://www.inkscape.org/namespaces/inkscape"
   width="24"
   height="24"
   viewBox="0 0 6.3499999 6.3500002"
   version="1.1"
   id="svg8"
   inkscape:version="0.92.5 (2060ec1f9f, 2020-04-08)"
   sodipodi:docname="i.svg">
  <defs
     id="defs2" />
  <sodipodi:namedview
     id="base"
     pagecolor="#ffffff"
     bordercolor="#666666"
     borderopacity="1.0"
     inkscape:pageopacity="0.0"
     inkscape:pageshadow="2"
     inkscape:zoom="11.420324"
     inkscape:cx="30.12938"
     inkscape:cy="6.7461184"
     inkscape:document-units="mm"
     inkscape:current-layer="layer1"
     showgrid="false"
     inkscape:window-width="1920"
     inkscape:window-height="1025"
     inkscape:window-x="0"
     inkscape:window-y="30"
     inkscape:window-maximized="1"
     units="px"
     showborder="true"
     inkscape:showpageshadow="false"
     borderlayer="true" />
  <metadata
     id="metadata5">
    <rdf:RDF>
      <cc:Work
         rdf:about="">
        <dc:format>image/svg+xml</dc:format>
        <dc:type
           rdf:resource="http://purl.org/dc/dcmitype/StillImage" />
        <dc:title></dc:title>
      </cc:Work>
    </rdf:RDF>
  </metadata>
  <g
     inkscape:label="Layer 1"
     inkscape:groupmode="layer"
     id="layer1"
     transform="translate(0,-290.64998)">
    <path
       style="opacity:1;fill:#ffffff;fill-opacity:1;stroke:none;stroke-width:3.53973055;stroke-miterlimit:4;stroke-dasharray:none"
       d="M 12 1 A 11 11 0 0 0 1 12 A 11 11 0 0 0 12 23 A 11 11 0 0 0 23 12 A 11 11 0 0 0 12 1 z M 10.994141 5 L 12.998047 5 C 13.273202 4.9990173 13.496997 5.2075213 13.5 5.4667969 L 13.5 7.5332031 C 13.496997 7.7920252 13.273204 8.0009827 12.998047 8 L 10.994141 8 C 10.721867 7.9972031 10.503 7.789833 10.5 7.5332031 L 10.5 5.4667969 C 10.502958 5.2102425 10.721867 5.0027969 10.994141 5 z M 10.994141 9.8183594 L 12.998047 9.8183594 C 13.273202 9.8173389 13.497 10.037728 13.5 10.3125 L 13.5 11.818359 L 13.5 17 L 13.5 18.505859 C 13.496997 18.780404 13.273204 19.001 12.998047 19 L 10.994141 19 C 10.721867 18.997014 10.503 18.777985 10.5 18.505859 L 10.5 17 L 10.5 11.818359 L 10.5 10.3125 C 10.502958 10.040223 10.721867 9.8213074 10.994141 9.8183594 z "
       transform="matrix(0.26458333,0,0,0.26458333,0,290.64998)"
       id="circle875" />
  </g>
</svg>
