<?xml version="1.0" encoding="UTF-8" standalone="no"?>
<!-- Created with Inkscape (http://www.inkscape.org/) -->

<svg
   xmlns:dc="http://purl.org/dc/elements/1.1/"
   xmlns:cc="http://creativecommons.org/ns#"
   xmlns:rdf="http://www.w3.org/1999/02/22-rdf-syntax-ns#"
   xmlns:svg="http://www.w3.org/2000/svg"
   xmlns="http://www.w3.org/2000/svg"
   xmlns:sodipodi="http://sodipodi.sourceforge.net/DTD/sodipodi-0.dtd"
   xmlns:inkscape="http://www.inkscape.org/namespaces/inkscape"
   width="24"
   height="24"
   viewBox="0 0 6.3499999 6.3500002"
   version="1.1"
   id="svg8"
   inkscape:version="0.92.5 (2060ec1f9f, 2020-04-08)"
   sodipodi:docname="map.svg">
  <defs
     id="defs2" />
  <sodipodi:namedview
     id="base"
     pagecolor="#ffffff"
     bordercolor="#666666"
     borderopacity="1.0"
     inkscape:pageopacity="0.0"
     inkscape:pageshadow="2"
     inkscape:zoom="28.12"
     inkscape:cx="18.167722"
     inkscape:cy="12.32926"
     inkscape:document-units="mm"
     inkscape:current-layer="layer1"
     showgrid="false"
     inkscape:window-width="1920"
     inkscape:window-height="1023"
     inkscape:window-x="0"
     inkscape:window-y="30"
     inkscape:window-maximized="1"
     units="px"
     showborder="true"
     inkscape:showpageshadow="false"
     borderlayer="true" />
  <metadata
     id="metadata5">
    <rdf:RDF>
      <cc:Work
         rdf:about="">
        <dc:format>image/svg+xml</dc:format>
        <dc:type
           rdf:resource="http://purl.org/dc/dcmitype/StillImage" />
        <dc:title></dc:title>
      </cc:Work>
    </rdf:RDF>
  </metadata>
  <g
     inkscape:label="Layer 1"
     inkscape:groupmode="layer"
     id="layer1"
     transform="translate(0,-290.64998)">
    <path
       style="color:#000000;font-style:normal;font-variant:normal;font-weight:normal;font-stretch:normal;font-size:medium;line-height:normal;font-family:sans-serif;font-variant-ligatures:normal;font-variant-position:normal;font-variant-caps:normal;font-variant-numeric:normal;font-variant-alternates:normal;font-feature-settings:normal;text-indent:0;text-align:start;text-decoration:none;text-decoration-line:none;text-decoration-style:solid;text-decoration-color:#000000;letter-spacing:normal;word-spacing:normal;text-transform:none;writing-mode:lr-tb;direction:ltr;text-orientation:mixed;dominant-baseline:auto;baseline-shift:baseline;text-anchor:start;white-space:normal;shape-padding:0;clip-rule:nonzero;display:inline;overflow:visible;visibility:visible;opacity:1;isolation:auto;mix-blend-mode:normal;color-interpolation:sRGB;color-interpolation-filters:linearRGB;solid-color:#000000;solid-opacity:1;vector-effect:none;fill:#ffffff;fill-opacity:1;fill-rule:nonzero;stroke:none;stroke-width:0.35830256;stroke-linecap:round;stroke-linejoin:round;stroke-miterlimit:4;stroke-dasharray:none;stroke-dashoffset:0;stroke-opacity:1;paint-order:markers stroke fill;color-rendering:auto;image-rendering:auto;shape-rendering:auto;text-rendering:auto;enable-background:accumulate"
       d="m 4.1072424,290.91437 c -0.4914529,0 -0.8901932,0.37285 -0.890385,0.89793 6.32e-5,0.11942 0.021468,0.21075 0.062528,0.32181 0.00169,0.0141 0.010997,0.0264 0.016536,0.0397 0.014452,0.0346 0.030373,0.0679 0.048576,0.10053 0.2051113,0.42202 0.5287539,0.88454 0.7183024,1.2504 0.00982,0.0192 0.02729,0.0389 0.041858,0.0403 l 0.0031,-5.6e-4 c 0.017426,10e-4 0.033716,-0.0159 0.044958,-0.0397 0.1864461,-0.36195 0.5030782,-0.82314 0.7126182,-1.24322 0.023094,-0.0395 0.043563,-0.0809 0.060978,-0.12368 2.313e-4,-6.2e-4 2.853e-4,-10e-4 5.168e-4,-0.002 0.00162,-0.003 0.00513,-0.009 0.00672,-0.0122 0.00199,-0.004 0.00101,-0.01 0.00258,-0.0143 0.040108,-0.10951 0.060641,-0.19925 0.060978,-0.31684 -1.958e-4,-0.52508 -0.3984156,-0.89794 -0.8898681,-0.89794 z m -1.8588013,0.16729 c -0.016322,7.7e-4 -0.032046,0.004 -0.047542,0.01 l -1.81384285,0.60843 c -0.0727643,0.0243 -0.12245009,0.0941 -0.12247314,0.17282 v 4.6803 c 7.83e-6,0.12355 0.11746455,0.21155 0.23151041,0.17337 l 1.76630048,-0.59298 1.7652668,0.59298 c 0.00938,0.003 0.018034,3.8e-4 0.027389,0.002 0.010917,0.003 0.022138,0.002 0.03359,0.002 0.011292,-4.5e-4 0.022294,1.8e-4 0.033073,-0.002 0.00954,-0.002 0.01833,10e-4 0.027905,-0.002 l 1.8133259,-0.60899 c 0.072764,-0.0243 0.1224502,-0.0941 0.1224732,-0.17281 v -4.68086 c 6.54e-5,-0.10224 -0.081637,-0.18421 -0.1808676,-0.18165 v -5.4e-4 c -0.017058,5.4e-4 -0.03445,0.004 -0.050643,0.01 l -0.7121012,0.23907 c 0.074476,0.16271 0.1198177,0.28992 0.1198894,0.4822 v 0.001 c -3.969e-4,0.14212 -0.028116,0.25516 -0.073381,0.38862 -0.00172,0.0163 -0.00177,0.0298 -0.019637,0.0685 l 0.00413,-0.009 c -0.00114,0.003 -0.00236,0.006 -0.00362,0.01 -4.234e-4,0.001 -0.00113,0.002 -0.00155,0.003 -6.35e-4,10e-4 1.569e-4,10e-4 -5.167e-4,0.002 -3.44e-4,3.7e-4 -6.896e-4,7.4e-4 -0.00103,10e-4 0.00106,-0.002 -0.00169,0.004 -0.0062,0.0132 l 0.00207,-0.005 c -0.021212,0.0503 -0.044507,0.0995 -0.07183,0.14631 l 0.0093,-0.0166 c -0.2075817,0.41615 -0.4391647,0.74241 -0.7110677,1.2377 -0.01688,0.0357 -0.03793,0.0738 -0.081132,0.11428 -0.033896,0.0318 -0.090849,0.0671 -0.160197,0.0774 -0.022045,0.003 -0.044443,0.004 -0.066663,0.002 -0.1084221,-0.0107 -0.1495296,-0.0585 -0.1808676,-0.0905 -0.031339,-0.032 -0.050756,-0.0608 -0.068729,-0.096 C 3.5708587,293.17917 3.2805402,292.7569 3.0540767,292.2896 H 3.05356 c 0.010549,0.0253 -0.011361,-0.0317 -0.026872,-0.0867 -0.045143,-0.13384 -0.074339,-0.24727 -0.074414,-0.38973 6.93e-5,-0.18929 0.045394,-0.31247 0.1183392,-0.47115 l -0.745691,-0.25067 c -0.016889,-0.005 -0.03492,-0.009 -0.05271,-0.009 -0.0045,-7e-5 -0.00798,0.002 -0.012402,0.002 -0.00381,-10e-5 -0.00751,-0.002 -0.011369,-0.002 z m 1.8588013,0.34893 c 0.2245705,1.1e-4 0.4065955,0.14178 0.4066935,0.38171 1.863e-4,0.24015 -0.181922,0.40839 -0.4066935,0.4085 -0.2247716,-1.1e-4 -0.4068799,-0.16835 -0.4066936,-0.4085 9.8e-5,-0.23993 0.1821231,-0.3816 0.4066936,-0.38171 z"
       id="path927"
       inkscape:connector-curvature="0"
       sodipodi:nodetypes="cccccccccccccccccccccccccccccccccccccccccccccccccccccccccccccccccccccc" />
    <g
       transform="matrix(0.62931441,0,0,1.0507468,2.4291667,-8.2951252)"
       id="layer1-3"
       inkscape:label="Layer 1"
       style="fill:#ff7f2a" />
    <g
       id="g997"
       transform="matrix(0.67283095,0,0,0.67283095,1.1285082,90.801982)"
       style="stroke-width:0.78647789;stroke-miterlimit:4;stroke-dasharray:none;stroke:none" />
  </g>
</svg>
