<?xml version="1.0" encoding="UTF-8" standalone="no"?>
<!-- Created with Inkscape (http://www.inkscape.org/) -->

<svg
   xmlns:dc="http://purl.org/dc/elements/1.1/"
   xmlns:cc="http://creativecommons.org/ns#"
   xmlns:rdf="http://www.w3.org/1999/02/22-rdf-syntax-ns#"
   xmlns:svg="http://www.w3.org/2000/svg"
   xmlns="http://www.w3.org/2000/svg"
   xmlns:sodipodi="http://sodipodi.sourceforge.net/DTD/sodipodi-0.dtd"
   xmlns:inkscape="http://www.inkscape.org/namespaces/inkscape"
   width="24"
   height="24"
   viewBox="0 0 6.3499999 6.3500002"
   version="1.1"
   id="svg8"
   inkscape:version="0.92.5 (2060ec1f9f, 2020-04-08)"
   sodipodi:docname="arrow_up.svg">
  <defs
     id="defs2" />
  <sodipodi:namedview
     id="base"
     pagecolor="#ffffff"
     bordercolor="#666666"
     borderopacity="1.0"
     inkscape:pageopacity="0.0"
     inkscape:pageshadow="2"
     inkscape:zoom="19.88"
     inkscape:cx="1.2715266"
     inkscape:cy="3.0918432"
     inkscape:document-units="mm"
     inkscape:current-layer="layer1"
     showgrid="false"
     inkscape:window-width="1920"
     inkscape:window-height="1025"
     inkscape:window-x="0"
     inkscape:window-y="30"
     inkscape:window-maximized="1"
     units="px"
     showborder="true"
     inkscape:showpageshadow="false"
     borderlayer="true" />
  <metadata
     id="metadata5">
    <rdf:RDF>
      <cc:Work
         rdf:about="">
        <dc:format>image/svg+xml</dc:format>
        <dc:type
           rdf:resource="http://purl.org/dc/dcmitype/StillImage" />
        <dc:title></dc:title>
      </cc:Work>
    </rdf:RDF>
  </metadata>
  <g
     inkscape:label="Layer 1"
     inkscape:groupmode="layer"
     id="layer1"
     transform="translate(0,-290.64998)">
    <path
       style="opacity:1;fill:#ffffff;fill-opacity:1;stroke:none;stroke-width:3.53973055;stroke-miterlimit:4;stroke-dasharray:none"
       d="M 12 1 A 11 11 0 0 0 1 12 A 11 11 0 0 0 12 23 A 11 11 0 0 0 23 12 A 11 11 0 0 0 12 1 z M 11.978516 4.5 L 12.003906 4.5039062 C 12.159458 4.4963472 12.303947 4.5840699 12.404297 4.703125 C 14.134709 6.6863187 17.591646 10.691025 19.375 12.671875 C 19.548133 12.867352 19.540857 13.167626 19.359375 13.355469 L 18.082031 14.646484 C 17.880021 14.85398 17.544817 14.862295 17.351562 14.646484 L 13.503906 10.324219 L 13.503906 19.005859 C 13.500907 19.28048 13.278704 19.501058 13.003906 19.5 L 11.003906 19.5 C 10.729105 19.501058 10.506905 19.280631 10.503906 19.005859 L 10.503906 10.324219 L 6.6777344 14.646484 C 6.4872813 14.859272 6.1584772 14.846799 5.9550781 14.646484 L 4.6484375 13.355469 C 4.4601944 13.168684 4.4491877 12.8703 4.625 12.671875 C 6.3712631 10.667705 9.7599679 6.6978463 11.603516 4.703125 C 11.691212 4.606747 11.848477 4.5075591 11.978516 4.5 z "
       transform="matrix(0.26458333,0,0,0.26458333,0,290.64998)"
       id="path834" />
  </g>
</svg>
