<?xml version="1.0" encoding="UTF-8" standalone="no"?>
<!-- Created with Inkscape (http://www.inkscape.org/) -->

<svg
   width="24"
   height="24"
   viewBox="0 0 6.3499999 6.3500002"
   version="1.1"
   id="svg8"
   inkscape:version="1.2.2 (1:1.2.2+202212051550+b0a8486541)"
   sodipodi:docname="content.svg"
   xml:space="preserve"
   xmlns:inkscape="http://www.inkscape.org/namespaces/inkscape"
   xmlns:sodipodi="http://sodipodi.sourceforge.net/DTD/sodipodi-0.dtd"
   xmlns="http://www.w3.org/2000/svg"
   xmlns:svg="http://www.w3.org/2000/svg"
   xmlns:rdf="http://www.w3.org/1999/02/22-rdf-syntax-ns#"
   xmlns:cc="http://creativecommons.org/ns#"
   xmlns:dc="http://purl.org/dc/elements/1.1/"><defs
     id="defs2" /><sodipodi:namedview
     id="base"
     pagecolor="#ffffff"
     bordercolor="#666666"
     borderopacity="1.0"
     inkscape:pageopacity="0.0"
     inkscape:pageshadow="2"
     inkscape:zoom="18.55"
     inkscape:cx="25.498652"
     inkscape:cy="4.2857143"
     inkscape:document-units="mm"
     inkscape:current-layer="path1027"
     showgrid="true"
     inkscape:window-width="1589"
     inkscape:window-height="1009"
     inkscape:window-x="0"
     inkscape:window-y="30"
     inkscape:window-maximized="0"
     units="px"
     showborder="true"
     inkscape:showpageshadow="false"
     borderlayer="true"
     inkscape:lockguides="true"
     inkscape:pagecheckerboard="0"
     inkscape:deskcolor="#d1d1d1"><inkscape:grid
       type="xygrid"
       id="grid172" /></sodipodi:namedview><metadata
     id="metadata5"><rdf:RDF><cc:Work
         rdf:about=""><dc:format>image/svg+xml</dc:format><dc:type
           rdf:resource="http://purl.org/dc/dcmitype/StillImage" /></cc:Work></rdf:RDF></metadata><g
     inkscape:label="Layer 1"
     inkscape:groupmode="layer"
     id="layer1"
     transform="translate(0,-290.64998)"><g
       id="path1027"
       inkscape:transform-center-x="-0.0027830934"
       inkscape:transform-center-y="-0.58832915"
       transform="matrix(0.32920916,-0.23218928,0.15927305,0.47992324,15.028464,291.57353)"
       style="fill:#800080"><path
         id="path5794"
         style="color:#000000;fill:#ffffff;stroke-linecap:round;stroke-linejoin:round;stroke-miterlimit:5.8;-inkscape-stroke:none"
         d="m -23.998596,-13.046155 c -0.117736,-0.056 -0.296124,0.03417 -0.466443,0.237342 l -4.29939,4.5064478 -0.154161,-2.1860638 c -0.01608,-0.210743 -0.142826,-0.397245 -0.333401,-0.488637 -0.190518,-0.09149 -0.41559,-0.07419 -0.590054,0.04509 l -4.612767,4.0803146 c -0.375858,0.2570431 -0.333408,0.8246069 0.07717,1.021498 l 3.381757,1.6210361 c 0.87597,0.4545074 1.81578,0.8758506 2.719058,1.3036496 l 0.833144,0.399849 c 0.02131,0.010229 0.04289,0.018302 0.06444,0.025792 l 0.748338,0.3545122 c 0.253667,0.1205896 0.549074,-0.087205 0.662308,-0.6454297 l 2.075516,-9.7667308 c 0.05255,-0.259126 0.01229,-0.452813 -0.105517,-0.508675 z m -3.979606,-1.919969 c -0.31363,-0.142586 -0.646107,-0.224656 -0.963346,-0.237798 -0.945462,-0.03907 -1.544882,0.531833 -1.36823,1.303139 0.176406,0.771413 1.068188,1.476958 2.035407,1.61034 0.967673,0.133558 1.676397,-0.351688 1.617245,-1.10729 l -0.0811,-0.35473 c -0.184376,-0.490169 -0.649521,-0.945444 -1.239973,-1.213661 z m -4.955617,-2.378171 -0.714006,-0.344363 c -0.119376,-0.05692 -0.259487,-0.04216 -0.35071,0.03706 l -3.793067,3.317213 -0.0025,-0.0012 c -0.150035,0.133903 -0.09493,0.390359 0.104206,0.485429 l 0.661432,0.320004 c 0.121961,0.05955 0.264932,0.0432 0.356637,-0.03958 l 0.790956,-0.726399 1.680291,0.812933 -0.07864,1.071019 c -0.0081,0.123414 0.06793,0.245528 0.190316,0.304198 l 0.655072,0.316928 0.0025,0.0012 c 0.198364,0.0918 0.428407,-0.02315 0.440203,-0.22204 l -0.0025,-0.0012 0.251023,-5.025488 -8.55e-4,-0.0047 c 0.0063,-0.122186 -0.06917,-0.242898 -0.19031,-0.300965 z m -1.117261,1.4041 -0.0783,1.268232 -0.867494,-0.419698 z m -3.761328,2.65313 c -0.100307,-0.04057 -0.204173,-0.02058 -0.236732,0.04806 l -2.112368,4.3661561 c -0.03271,0.072731 0.02524,0.170913 0.130015,0.2211866 l 0.755559,0.3655431 c 0.104415,0.051017 0.217398,0.035449 0.254124,-0.035338 0.06124,-0.3615158 0.166,0.1233187 0.28293,0.2101034 -5.68e-4,0.00112 -8.92e-4,0.00179 -0.0017,0.00349 0.225845,0.2347014 0.529572,0.4392598 0.889857,0.6135673 0.605327,0.2928602 1.20941,0.3677712 1.744936,0.2218389 0.540188,-0.1463441 0.935725,-0.487039 1.18489,-1.0020508 0.249157,-0.514995 0.270885,-1.0367487 0.05028,-1.5509809 -0.21793,-0.5105417 -0.651643,-0.9376377 -1.256947,-1.2304877 -0.360753,-0.174534 -0.711104,-0.280725 -1.036761,-0.309926 -0.150457,-0.01403 -0.274816,0.04344 -0.415059,0.063 l 0.66993,-1.38471 c 0.03585,-0.07267 -0.0219,-0.173187 -0.128328,-0.224677 l -0.755558,-0.365543 c -0.0066,-0.0032 -0.02083,-0.0045 -0.01908,-0.0092 z m 1.161432,2.836033 c -0.350422,0 0.54787,0.367657 0.65268,0.6495677 0.107733,0.2809709 0.08849,0.6022718 -0.08645,0.9638709 -0.174951,0.3616159 -0.414644,0.5768681 -0.703361,0.6686385 -0.284941,0.091077 -0.566494,0.059725 -0.914405,-0.1085965 -0.34791,-0.1683208 -0.544648,-0.3679933 -0.65268,-0.649567 -0.104879,-0.2821737 -0.08224,-0.6022083 0.09281,-0.9640272 0.17505,-0.3618184 0.412209,-0.5774414 0.697007,-0.6684824 0.288992,-0.09178 0.566967,-0.0595 0.914405,0.108596 z"
         sodipodi:nodetypes="ccccccccccccccccccccccccccccccccccccccccccccccccccccccscscsccccccscscscscscsccs" /></g><g
       aria-label="b"
       id="text1941"
       style="font-size:5.07828px;line-height:1.25;letter-spacing:0px;word-spacing:0px;fill:#008080;stroke:#008080;stroke-width:0.231843;stroke-linecap:round;stroke-linejoin:round"
       transform="translate(-5.2864643,-2.0063278)"><g
         id="path1943" /></g><g
       id="path344"
       inkscape:transform-center-x="-0.0017160358"
       inkscape:transform-center-y="-0.82481331"
       transform="matrix(0.20308048,-0.32552093,0.09825135,0.67283495,11.716931,289.50526)" /><g
       id="g5911"
       inkscape:transform-center-x="-0.0017160358"
       inkscape:transform-center-y="-0.82481331"
       transform="matrix(0.20308048,-0.32552093,0.09825135,0.67283495,11.696412,296.01127)" /></g></svg>
