<?xml version="1.0" encoding="UTF-8" standalone="no"?>
<svg
   xmlns:dc="http://purl.org/dc/elements/1.1/"
   xmlns:cc="http://creativecommons.org/ns#"
   xmlns:rdf="http://www.w3.org/1999/02/22-rdf-syntax-ns#"
   xmlns:svg="http://www.w3.org/2000/svg"
   xmlns="http://www.w3.org/2000/svg"
   xmlns:sodipodi="http://sodipodi.sourceforge.net/DTD/sodipodi-0.dtd"
   xmlns:inkscape="http://www.inkscape.org/namespaces/inkscape"
   aria-hidden="true"
   focusable="false"
   data-prefix="fas"
   data-icon="envelope"
   class="svg-inline--fa fa-envelope fa-w-16"
   role="img"
   viewBox="0 0 24 24"
   id="svg2"
   version="1.1"
   inkscape:version="0.92.5 (2060ec1f9f, 2020-04-08)"
   sodipodi:docname="email.svg"
   width="24"
   height="24">
  <metadata
     id="metadata10">
    <rdf:RDF>
      <cc:Work
         rdf:about="">
        <dc:format>image/svg+xml</dc:format>
        <dc:type
           rdf:resource="http://purl.org/dc/dcmitype/StillImage" />
        <dc:title></dc:title>
      </cc:Work>
    </rdf:RDF>
  </metadata>
  <defs
     id="defs8" />
  <sodipodi:namedview
     pagecolor="#ffffff"
     bordercolor="#666666"
     borderopacity="1"
     objecttolerance="10"
     gridtolerance="10"
     guidetolerance="10"
     inkscape:pageopacity="0"
     inkscape:pageshadow="2"
     inkscape:window-width="1920"
     inkscape:window-height="1023"
     id="namedview6"
     showgrid="false"
     inkscape:showpageshadow="false"
     inkscape:zoom="20.68"
     inkscape:cx="6.1750488"
     inkscape:cy="7.6360391"
     inkscape:window-x="0"
     inkscape:window-y="30"
     inkscape:window-maximized="1"
     inkscape:current-layer="svg2" />
  <path
     id="path4"
     style="fill:#ffffff"
     d="m 12,14.75 c 0.99687,0.0172 2.43203,-1.25469 3.15391,-1.77891 C 20.85586,8.8331998 21.28984,8.4722698 22.60469,7.4410198 22.85391,7.2476598 23,6.9468698 23,6.6289098 V 5.412 C 23,4.27333 22.47667,3.7499998 21.338,3.7499998 H 2.662 C 1.52333,3.7499998 0.99999982,4.27333 0.99999982,5.412 v 1.2169098 c 0,0.31796 0.14608998,0.61445 0.39530998,0.81211 1.31485,1.02695 1.74883,1.39218 7.45078,5.5300702 C 9.5679698,13.49531 11.00312,14.76719 12,14.75 Z M 22.71875,9.1445312 c -0.04693,0.00379 -0.09287,0.021385 -0.134766,0.054688 -0.9625,0.7476504 -2.234377,1.7007848 -6.617187,4.8847648 C 15.094527,14.719924 13.53398,16.141806 12,16.128906 10.47461,16.137496 8.9457025,14.745704 8.0390625,14.083984 3.6562525,10.900004 2.3785156,9.9507854 1.4160156,9.203125 1.2441356,9.069925 1,9.1894469 1,9.4042969 V 18.588 c 0,1.13867 0.52333,1.661985 1.662,1.662 l 18.676,2.5e-4 C 22.47667,20.250265 23,19.72667 23,18.588 V 9.4003906 C 23,9.2421781 22.859541,9.1331556 22.71875,9.1445312 Z m -3.169922,4.4707028 c 0.474594,0 0.915117,0.09821 1.320313,0.292969 0.407434,0.194763 0.748083,0.469941 1.023437,0.828125 0.167899,0.219388 0.295505,0.459352 0.382813,0.716797 0.08955,0.257445 0.134765,0.523474 0.134765,0.798828 0,0.588765 -0.177257,1.052304 -0.533203,1.392578 -0.355945,0.340276 -0.847787,0.517818 -1.474609,0.53125 v -0.517578 c -0.134319,0.172377 -0.288276,0.299983 -0.462891,0.382813 -0.172376,0.08059 -0.374887,0.121093 -0.605469,0.121093 -0.385048,0 -0.697679,-0.138423 -0.939453,-0.416015 -0.239536,-0.279832 -0.359375,-0.644067 -0.359375,-1.091797 0,-0.44773 0.119554,-0.811965 0.361328,-1.091797 0.241774,-0.279831 0.554691,-0.419922 0.9375,-0.419922 0.230582,0 0.432808,0.04384 0.607422,0.128906 0.174616,0.08283 0.328858,0.208769 0.460938,0.378907 v -0.439453 h 0.480468 v 2.470703 c 0.326844,-0.04925 0.582056,-0.196826 0.765626,-0.445313 0.185807,-0.250729 0.277343,-0.574462 0.277343,-0.970703 0,-0.239536 -0.03579,-0.465348 -0.107422,-0.675781 -0.0694,-0.210434 -0.175086,-0.404893 -0.318359,-0.583985 -0.23282,-0.293263 -0.517718,-0.517408 -0.853516,-0.671875 -0.333559,-0.156706 -0.695841,-0.234375 -1.089843,-0.234375 -0.275354,0 -0.540001,0.0355 -0.792969,0.109375 -0.252967,0.07164 -0.486261,0.180946 -0.701172,0.324219 -0.351468,0.228343 -0.626932,0.526822 -0.826172,0.898438 -0.197001,0.369378 -0.296875,0.771065 -0.296875,1.203125 0,0.355946 0.0638,0.688828 0.191406,1 0.129842,0.311172 0.316535,0.584968 0.560547,0.822265 0.235059,0.23282 0.507473,0.410364 0.816406,0.53125 0.308935,0.123126 0.638767,0.185547 0.990235,0.185547 0.288786,0 0.572016,-0.04994 0.849609,-0.148437 0.279832,-0.09626 0.536712,-0.234685 0.769532,-0.416016 l 0.302734,0.373047 c -0.279831,0.217149 -0.586649,0.381922 -0.917969,0.496094 -0.329082,0.11641 -0.663631,0.173828 -1.003906,0.173828 -0.414151,0 -0.804736,-0.07295 -1.171875,-0.220703 -0.367139,-0.145512 -0.693922,-0.358841 -0.980469,-0.638672 -0.286547,-0.279832 -0.504307,-0.603565 -0.654297,-0.970703 -0.149989,-0.369378 -0.224609,-0.764395 -0.224609,-1.1875 0,-0.407435 0.07629,-0.796639 0.228515,-1.166016 0.152229,-0.369377 0.368321,-0.692825 0.650391,-0.972656 0.288786,-0.28431 0.623621,-0.502355 1.001953,-0.652344 0.378332,-0.152229 0.778067,-0.228516 1.201172,-0.228516 z m -0.08984,2.015625 c -0.270877,0 -0.487254,0.09182 -0.648437,0.275391 -0.158944,0.183569 -0.238281,0.432397 -0.238281,0.748047 0,0.320127 0.07934,0.57229 0.238281,0.755859 0.158944,0.181331 0.376703,0.271485 0.654297,0.271485 0.275354,0 0.491732,-0.09182 0.648437,-0.275391 0.158945,-0.183569 0.238281,-0.434064 0.238281,-0.751953 0,-0.313411 -0.081,-0.562525 -0.242187,-0.746094 -0.161183,-0.185808 -0.377275,-0.277344 -0.650391,-0.277344 z"
     inkscape:connector-curvature="0"
     sodipodi:nodetypes="cccsssssscccccccccsssssscscccsccccscscsccccccscccscccscccsccccscccscccsscscscscs" />
</svg>
