<?xml version="1.0" encoding="UTF-8" standalone="no"?>
<!-- Created with Inkscape (http://www.inkscape.org/) -->

<svg
   xmlns:dc="http://purl.org/dc/elements/1.1/"
   xmlns:cc="http://creativecommons.org/ns#"
   xmlns:rdf="http://www.w3.org/1999/02/22-rdf-syntax-ns#"
   xmlns:svg="http://www.w3.org/2000/svg"
   xmlns="http://www.w3.org/2000/svg"
   xmlns:sodipodi="http://sodipodi.sourceforge.net/DTD/sodipodi-0.dtd"
   xmlns:inkscape="http://www.inkscape.org/namespaces/inkscape"
   width="24"
   height="24"
   viewBox="0 0 6.3499999 6.3500002"
   version="1.1"
   id="svg8"
   inkscape:version="0.92.5 (2060ec1f9f, 2020-04-08)"
   sodipodi:docname="phone.svg">
  <defs
     id="defs2" />
  <sodipodi:namedview
     id="base"
     pagecolor="#ffffff"
     bordercolor="#666666"
     borderopacity="1.0"
     inkscape:pageopacity="0.0"
     inkscape:pageshadow="2"
     inkscape:zoom="24.48"
     inkscape:cx="11.757034"
     inkscape:cy="11.9624"
     inkscape:document-units="mm"
     inkscape:current-layer="layer1"
     showgrid="false"
     inkscape:window-width="1920"
     inkscape:window-height="1023"
     inkscape:window-x="0"
     inkscape:window-y="30"
     inkscape:window-maximized="1"
     units="px"
     showborder="true"
     inkscape:showpageshadow="false"
     borderlayer="true"
     showguides="false" />
  <metadata
     id="metadata5">
    <rdf:RDF>
      <cc:Work
         rdf:about="">
        <dc:format>image/svg+xml</dc:format>
        <dc:type
           rdf:resource="http://purl.org/dc/dcmitype/StillImage" />
        <dc:title></dc:title>
      </cc:Work>
    </rdf:RDF>
  </metadata>
  <g
     inkscape:label="Layer 1"
     inkscape:groupmode="layer"
     id="layer1"
     transform="translate(0,-290.64998)">
    <path
       style="color:#000000;font-style:normal;font-variant:normal;font-weight:normal;font-stretch:normal;font-size:medium;line-height:normal;font-family:sans-serif;font-variant-ligatures:normal;font-variant-position:normal;font-variant-caps:normal;font-variant-numeric:normal;font-variant-alternates:normal;font-feature-settings:normal;text-indent:0;text-align:start;text-decoration:none;text-decoration-line:none;text-decoration-style:solid;text-decoration-color:#000000;letter-spacing:normal;word-spacing:normal;text-transform:none;writing-mode:lr-tb;direction:ltr;text-orientation:mixed;dominant-baseline:auto;baseline-shift:baseline;text-anchor:start;white-space:normal;shape-padding:0;clip-rule:nonzero;display:inline;overflow:visible;visibility:visible;opacity:1;isolation:auto;mix-blend-mode:normal;color-interpolation:sRGB;color-interpolation-filters:linearRGB;solid-color:#000000;solid-opacity:1;vector-effect:none;fill:#ffffff;fill-opacity:1;fill-rule:nonzero;stroke:none;stroke-width:0.11427712;stroke-linecap:round;stroke-linejoin:round;stroke-miterlimit:5.80000019;stroke-dasharray:none;stroke-dashoffset:0;stroke-opacity:1;paint-order:normal;color-rendering:auto;image-rendering:auto;shape-rendering:auto;text-rendering:auto;enable-background:accumulate"
       d="m 4.1948637,291.24349 c -0.079628,0 -0.1457275,0.0754 -0.1457275,0.16588 v 4.07393 c 0,0.0906 0.0661,0.16537 0.1457275,0.16537 h 1.0282725 c 0.079628,0 0.1457276,-0.0749 0.1457276,-0.16537 v -4.07393 c 0,-0.0906 -0.066099,-0.16588 -0.1457275,-0.16588 z m -3.75251345,0.68213 c -0.0985354,0 -0.17776692,0.0797 -0.17776692,0.17828 v 4.12481 c 0,0.0985 0.0792316,0.17777 0.17776692,0.17777 H 5.9076497 c 0.098535,0 0.1777669,-0.0792 0.1777669,-0.17777 v -4.12481 c 0,-0.0985 -0.079232,-0.17828 -0.1777669,-0.17828 h -0.260966 v 3.83749 c 0,0.0983 -0.081572,0.17932 -0.1798341,0.17932 H 3.95118 c -0.098262,0 -0.1798341,-0.081 -0.1798341,-0.17932 v -3.83749 z m 0.53864977,1.0015 c 0.15528298,-6e-5 0.28117958,0.12583 0.28111978,0.28111 -2.217e-4,0.15508 -0.1260358,0.28067 -0.28111978,0.28062 -0.15508393,6e-5 -0.2808981,-0.12554 -0.28111979,-0.28062 -5.984e-5,-0.15528 0.1258368,-0.28117 0.28111979,-0.28111 z m 0.95841648,0 c 0.155283,-6e-5 0.2811796,0.12583 0.2811198,0.28111 -2.217e-4,0.15508 -0.1260359,0.28067 -0.2811198,0.28062 -0.1550839,6e-5 -0.2808981,-0.12554 -0.2811198,-0.28062 -5.98e-5,-0.15528 0.1258368,-0.28117 0.2811198,-0.28111 z m 0.9585835,0 c 0.155283,-6e-5 0.2811796,0.12583 0.2811198,0.28111 -2.217e-4,0.15508 -0.1260359,0.28067 -0.2811198,0.28062 -0.1550839,6e-5 -0.2808981,-0.12554 -0.2811198,-0.28062 -5.98e-5,-0.15528 0.1258368,-0.28117 0.2811198,-0.28111 z m -1.91699998,0.95807 c 0.15528298,-6e-5 0.28117958,0.12584 0.28111978,0.28112 5.43e-5,0.15528 -0.1258407,0.28117 -0.28111978,0.28111 -0.15527908,6e-5 -0.2811741,-0.12583 -0.28111979,-0.28111 -5.984e-5,-0.15528 0.1258368,-0.28118 0.28111979,-0.28112 z m 0.95841648,0 c 0.155283,-6e-5 0.2811796,0.12584 0.2811198,0.28112 5.43e-5,0.15528 -0.1258407,0.28117 -0.2811198,0.28111 -0.1552791,6e-5 -0.2811741,-0.12583 -0.2811198,-0.28111 -5.98e-5,-0.15528 0.1258368,-0.28118 0.2811198,-0.28112 z m 0.9585835,0 c 0.155283,-6e-5 0.2811796,0.12584 0.2811198,0.28112 5.43e-5,0.15528 -0.1258407,0.28117 -0.2811198,0.28111 -0.1552791,6e-5 -0.2811741,-0.12583 -0.2811198,-0.28111 -5.98e-5,-0.15528 0.1258368,-0.28118 0.2811198,-0.28112 z m -1.91699998,0.95867 c 0.15528298,-6e-5 0.28117958,0.12584 0.28111978,0.28112 5.98e-5,0.15528 -0.1258368,0.28118 -0.28111978,0.28112 -0.15528299,6e-5 -0.28117963,-0.12584 -0.28111979,-0.28112 -5.984e-5,-0.15528 0.1258368,-0.28118 0.28111979,-0.28112 z m 0.95841648,0 c 0.155283,-6e-5 0.2811796,0.12584 0.2811198,0.28112 5.98e-5,0.15528 -0.1258368,0.28118 -0.2811198,0.28112 -0.155283,6e-5 -0.2811796,-0.12584 -0.2811198,-0.28112 -5.98e-5,-0.15528 0.1258368,-0.28118 0.2811198,-0.28112 z m 0.9585835,0 c 0.155283,-6e-5 0.2811796,0.12584 0.2811198,0.28112 5.98e-5,0.15528 -0.1258368,0.28118 -0.2811198,0.28112 -0.155283,6e-5 -0.2811796,-0.12584 -0.2811198,-0.28112 C 2.6168204,294.9697 2.742717,294.8438 2.898,294.84386 Z"
       id="path900"
       inkscape:connector-curvature="0"
       sodipodi:nodetypes="ssssssssssssssssscsssscsccccccccccccccccccccccccccccccccccccccccccccc" />
  </g>
</svg>
