<?xml version="1.0" encoding="UTF-8" standalone="no"?>
<!-- Created with Inkscape (http://www.inkscape.org/) -->

<svg
   xmlns:dc="http://purl.org/dc/elements/1.1/"
   xmlns:cc="http://creativecommons.org/ns#"
   xmlns:rdf="http://www.w3.org/1999/02/22-rdf-syntax-ns#"
   xmlns:svg="http://www.w3.org/2000/svg"
   xmlns="http://www.w3.org/2000/svg"
   xmlns:sodipodi="http://sodipodi.sourceforge.net/DTD/sodipodi-0.dtd"
   xmlns:inkscape="http://www.inkscape.org/namespaces/inkscape"
   width="24"
   height="24"
   viewBox="0 0 6.3499999 6.3500002"
   version="1.1"
   id="svg8"
   inkscape:version="0.92.5 (2060ec1f9f, 2020-04-08)"
   sodipodi:docname="reset.svg">
  <defs
     id="defs2" />
  <sodipodi:namedview
     id="base"
     pagecolor="#ffffff"
     bordercolor="#666666"
     borderopacity="1.0"
     inkscape:pageopacity="0.0"
     inkscape:pageshadow="2"
     inkscape:zoom="19.88"
     inkscape:cx="24.528765"
     inkscape:cy="7.1159881"
     inkscape:document-units="mm"
     inkscape:current-layer="layer1"
     showgrid="false"
     inkscape:window-width="1920"
     inkscape:window-height="1025"
     inkscape:window-x="0"
     inkscape:window-y="30"
     inkscape:window-maximized="1"
     units="px"
     showborder="true"
     inkscape:showpageshadow="false"
     borderlayer="true" />
  <metadata
     id="metadata5">
    <rdf:RDF>
      <cc:Work
         rdf:about="">
        <dc:format>image/svg+xml</dc:format>
        <dc:type
           rdf:resource="http://purl.org/dc/dcmitype/StillImage" />
        <dc:title></dc:title>
      </cc:Work>
    </rdf:RDF>
  </metadata>
  <g
     inkscape:label="Layer 1"
     inkscape:groupmode="layer"
     id="layer1"
     transform="translate(0,-290.64998)">
    <path
       style="opacity:1;fill:#ffffff;fill-opacity:1;stroke:none;stroke-width:3.53973055;stroke-miterlimit:4;stroke-dasharray:none"
       d="M 14.740234 0.93945312 C 14.650214 0.93578698 14.558907 0.96479368 14.501953 1.0332031 L 14.488281 1.0410156 C 14.441022 1.0995983 14.422435 1.2060374 14.429688 1.28125 C 14.573601 2.8455965 14.968723 5.8390611 15.154297 7.3652344 C 15.17138 7.5175493 15.303703 7.6278335 15.457031 7.6191406 L 16.517578 7.5566406 C 16.682335 7.545302 16.814911 7.4120784 16.796875 7.2480469 L 16.455078 4.2167969 C 19.749669 6.109811 21.609939 9.9618417 20.777344 13.878906 C 19.860117 18.194106 15.992007 21.116195 11.734375 20.998047 L 11.734375 21 C 11.626194 20.996334 11.531534 20.988155 11.414062 20.984375 C 11.231663 20.988117 11.087281 21.135808 11.089844 21.318359 L 11.101562 22.646484 C 11.102377 22.788217 11.193053 22.906259 11.318359 22.953125 L 11.314453 22.974609 C 11.352211 22.978389 11.388349 22.976336 11.425781 22.976562 C 11.428508 22.976638 11.429765 22.976336 11.433594 22.976562 C 11.444895 22.977848 11.45377 22.974219 11.464844 22.976562 C 16.751961 23.227843 21.596376 19.641785 22.734375 14.296875 C 23.729742 9.6140404 21.576266 5.0083234 17.712891 2.6445312 L 20.929688 2.6601562 C 21.097208 2.6609877 21.224146 2.5147114 21.212891 2.3476562 L 21.152344 1.2988281 C 21.141837 1.148025 21.014489 1.0284776 20.863281 1.0273438 C 19.321752 1.0273438 16.2623 0.96326415 14.740234 0.93945312 z M 11.517578 1.0058594 C 6.6236189 1.2124109 2.2979273 4.6786188 1.2324219 9.6914062 L 1.2324219 9.6933594 C 0.23705593 14.376194 2.390535 18.979958 6.2539062 21.34375 L 3.0351562 21.330078 C 2.8675591 21.329625 2.742686 21.475523 2.7539062 21.642578 L 2.8144531 22.691406 C 2.8249262 22.842209 2.9503655 22.961379 3.1015625 22.962891 C 4.6430731 22.962966 7.7025422 23.02697 9.2246094 23.050781 C 9.3147776 23.053805 9.4078938 23.023488 9.4648438 22.955078 L 9.4765625 22.947266 C 9.5238368 22.888683 9.5424243 22.784197 9.5351562 22.708984 C 9.3912167 21.144638 8.9961171 18.151173 8.8105469 16.625 C 8.7934634 16.472685 8.6630595 16.362401 8.5097656 16.371094 L 7.4472656 16.433594 C 7.2824858 16.444932 7.149948 16.578156 7.1679688 16.742188 L 7.5097656 19.773438 C 4.2151889 17.876606 2.3549049 14.024486 3.1875 10.107422 C 4.1047316 5.7921841 7.9728642 2.8701332 12.230469 2.9882812 L 12.232422 2.9863281 C 12.34069 2.9901077 12.433431 2.9981736 12.550781 3.0019531 C 12.733166 2.998287 12.877559 2.8505199 12.875 2.6679688 L 12.863281 1.3398438 C 12.862498 1.1981115 12.771677 1.0800693 12.646484 1.0332031 L 12.652344 1.0117188 C 12.615002 1.0094132 12.578327 1.0116554 12.541016 1.0097656 C 12.538272 1.00969 12.535887 1.0077747 12.533203 1.0078125 C 12.523301 1.0068298 12.511931 1.0106727 12.501953 1.0097656 C 12.171431 0.99405696 11.843842 0.99208927 11.517578 1.0058594 z "
       transform="matrix(0.26458333,0,0,0.26458333,0,290.64998)"
       id="path834" />
  </g>
</svg>
