<?xml version="1.0" encoding="UTF-8" standalone="no"?>
<!-- Created with Inkscape (http://www.inkscape.org/) -->

<svg
   xmlns:dc="http://purl.org/dc/elements/1.1/"
   xmlns:cc="http://creativecommons.org/ns#"
   xmlns:rdf="http://www.w3.org/1999/02/22-rdf-syntax-ns#"
   xmlns:svg="http://www.w3.org/2000/svg"
   xmlns="http://www.w3.org/2000/svg"
   xmlns:sodipodi="http://sodipodi.sourceforge.net/DTD/sodipodi-0.dtd"
   xmlns:inkscape="http://www.inkscape.org/namespaces/inkscape"
   width="24"
   height="24"
   viewBox="0 0 6.3499999 6.3500002"
   version="1.1"
   id="svg8"
   inkscape:version="0.92.5 (2060ec1f9f, 2020-04-08)"
   sodipodi:docname="a_minus.svg">
  <defs
     id="defs2" />
  <sodipodi:namedview
     id="base"
     pagecolor="#ffffff"
     bordercolor="#666666"
     borderopacity="1.0"
     inkscape:pageopacity="0.0"
     inkscape:pageshadow="2"
     inkscape:zoom="24.48"
     inkscape:cx="2.6027657"
     inkscape:cy="10.134138"
     inkscape:document-units="mm"
     inkscape:current-layer="layer1"
     showgrid="false"
     inkscape:window-width="1920"
     inkscape:window-height="1025"
     inkscape:window-x="0"
     inkscape:window-y="30"
     inkscape:window-maximized="1"
     units="px"
     showborder="true"
     inkscape:showpageshadow="false"
     borderlayer="true"
     showguides="false" />
  <metadata
     id="metadata5">
    <rdf:RDF>
      <cc:Work
         rdf:about="">
        <dc:format>image/svg+xml</dc:format>
        <dc:type
           rdf:resource="http://purl.org/dc/dcmitype/StillImage" />
        <dc:title></dc:title>
      </cc:Work>
    </rdf:RDF>
  </metadata>
  <g
     inkscape:label="Layer 1"
     inkscape:groupmode="layer"
     id="layer1"
     transform="translate(0,-290.64998)">
    <path
       style="color:#000000;font-style:normal;font-variant:normal;font-weight:normal;font-stretch:normal;font-size:5.07828379px;line-height:1.25;font-family:sans-serif;font-variant-ligatures:normal;font-variant-position:normal;font-variant-caps:normal;font-variant-numeric:normal;font-variant-alternates:normal;font-feature-settings:normal;text-indent:0;text-align:start;text-decoration:none;text-decoration-line:none;text-decoration-style:solid;text-decoration-color:#000000;letter-spacing:0px;word-spacing:0px;text-transform:none;writing-mode:lr-tb;direction:ltr;text-orientation:mixed;dominant-baseline:auto;baseline-shift:baseline;text-anchor:start;white-space:normal;shape-padding:0;clip-rule:nonzero;display:inline;overflow:visible;visibility:visible;opacity:1;isolation:auto;mix-blend-mode:normal;color-interpolation:sRGB;color-interpolation-filters:linearRGB;solid-color:#000000;solid-opacity:1;vector-effect:none;fill:#ffffff;fill-opacity:1;fill-rule:nonzero;stroke:none;stroke-width:0.94004411;stroke-linecap:round;stroke-linejoin:round;stroke-miterlimit:4;stroke-dasharray:none;stroke-dashoffset:0;stroke-opacity:1;color-rendering:auto;image-rendering:auto;shape-rendering:auto;text-rendering:auto;enable-background:accumulate"
       d="M 8.2871094,1 6.5175781,1.00195 C 6.2222836,1.0050523 5.9559313,1.3166082 5.8496094,1.7851562 L 1.4492188,21.349609 c -0.00203,-3.7e-5 -0.00397,-3.7e-5 -0.00586,0 C 1.2719956,22.133824 1.6322869,23.004876 2.125,23 h 1.640625 c 0.3030425,0.0021 0.5758563,-0.32155 0.6796875,-0.804688 L 5.328125,17.984375 h 4.1679688 l 0.8828122,4.210937 C 10.48273,22.678147 10.755536,23.002117 11.058594,23 h 1.623047 c 0.002,3.8e-5 0.0036,3.8e-5 0.0059,0 0.48799,-0.01134 0.839619,-0.873584 0.669922,-1.650391 -0.002,-3.7e-5 -0.004,-3.7e-5 -0.0059,0 L 8.96875,1.8066406 8.9628906,1.7949219 C 8.8567237,1.3199864 8.5870754,0.99784567 8.2871094,1 Z m 5.5468746,9.984375 c -0.242834,-0.0026 -0.441923,0.19275 -0.443359,0.435547 v 1.160156 c 0.0015,0.243024 0.200533,0.438193 0.443359,0.435547 2.908203,0 5.816407,0 8.72461,0 0.242797,0.0026 0.4419,-0.192788 0.443359,-0.435547 v -1.160156 c -0.0014,-0.243024 -0.200536,-0.438193 -0.443359,-0.435547 -2.908203,0 -5.816407,0 -8.72461,0 z M 7.40625,8.3789062 8.4824219,13.341797 H 6.3300781 Z"
       transform="matrix(0.26458333,0,0,0.26458333,0,290.64998)"
       id="path822"
       inkscape:connector-curvature="0"
       sodipodi:nodetypes="cccccccccccccccccccccccccccccccc" />
  </g>
</svg>
