<?xml version="1.0" encoding="UTF-8" standalone="no"?>
<svg
   xmlns:dc="http://purl.org/dc/elements/1.1/"
   xmlns:cc="http://creativecommons.org/ns#"
   xmlns:rdf="http://www.w3.org/1999/02/22-rdf-syntax-ns#"
   xmlns:svg="http://www.w3.org/2000/svg"
   xmlns="http://www.w3.org/2000/svg"
   xmlns:sodipodi="http://sodipodi.sourceforge.net/DTD/sodipodi-0.dtd"
   xmlns:inkscape="http://www.inkscape.org/namespaces/inkscape"
   class="svg-icon"
   style="overflow:hidden;fill:currentColor"
   viewBox="0 0 24 24"
   version="1.1"
   id="svg2"
   inkscape:version="0.91 r13725"
   sodipodi:docname="fax.svg"
   width="24"
   height="24">
  <metadata
     id="metadata12">
    <rdf:RDF>
      <cc:Work
         rdf:about="">
        <dc:format>image/svg+xml</dc:format>
        <dc:type
           rdf:resource="http://purl.org/dc/dcmitype/StillImage" />
        <dc:title></dc:title>
      </cc:Work>
    </rdf:RDF>
  </metadata>
  <defs
     id="defs10" />
  <sodipodi:namedview
     pagecolor="#ffffff"
     bordercolor="#666666"
     borderopacity="1"
     objecttolerance="10"
     gridtolerance="10"
     guidetolerance="10"
     inkscape:pageopacity="0"
     inkscape:pageshadow="2"
     inkscape:window-width="1920"
     inkscape:window-height="1028"
     id="namedview8"
     showgrid="false"
     inkscape:showpageshadow="false"
     inkscape:zoom="15.07"
     inkscape:cx="22.112207"
     inkscape:cy="8.2495023"
     inkscape:window-x="0"
     inkscape:window-y="25"
     inkscape:window-maximized="1"
     inkscape:current-layer="svg2" />
  <path
     d="m 6.6675958,1.000035 c -1.06943,0 -1.94031,0.87081 -1.94031,1.94025 l 0,1.38613 14.6360502,0 0,-1.38613 c 0,-1.06944 -0.87081,-1.94025 -1.94025,-1.94025 z m -1.94031,4.71664 0,0.0347 -1.8333,0 c -0.84028,0 -1.51248,0.6722 -1.51248,1.51248 l 0,9.6097 c 0,0.84027 0.6722,1.51247 1.51248,1.51247 l 0.70279,0 c 0.24445,0 0.42778,-0.1986 0.42778,-0.42777 l 0,-1.55834 -0.0153,0 c -0.45833,0 -0.82504,-0.39722 -0.7792,-0.85555 0.0458,-0.39722 0.39724,-0.70274 0.80974,-0.70274 l 0.50074,0 c 0.031,-0.002 0.0621,-0.003 0.0936,-0.004 l 14.6255002,0 c 0.0474,0 0.0941,0.001 0.14016,0.004 l 0.58985,0 c 0.19861,0 0.39721,0.0917 0.54999,0.22916 0.13749,0.15277 0.22916,0.35137 0.21388,0.54998 0,0.42778 -0.35137,0.76388 -0.76387,0.76388 l -0.0305,0 0.0153,1.55834 c 0,0.24444 0.19861,0.42777 0.42777,0.42777 l 0.7028,0 c 0.84027,0 1.51248,-0.6722 1.51248,-1.51247 l 0,-9.59443 c 0.0305,-0.84028 -0.64167,-1.51248 -1.48194,-1.51248 l -1.77223,0 0,-0.0347 -14.6360502,0 z m 0.65641,1.09381 c 0.5056232,1.6e-6 0.9155129,0.4098868 0.91552,0.91551 -1.6e-6,0.5056271 -0.4098929,0.9155184 -0.91552,0.91552 -0.5056271,-1.6e-6 -0.9155184,-0.4098929 -0.91552,-0.91552 7.1e-6,-0.5056232 0.4098968,-0.9155084 0.91552,-0.91551 z m 2.8554492,0 c 0.5056232,1.6e-6 0.9155129,0.4098868 0.91552,0.91551 -1.6e-6,0.5056271 -0.4098929,0.9155184 -0.91552,0.91552 C 7.7335217,8.6415079 7.3236365,8.2316182 7.3236349,7.725995 7.323642,7.2203757 7.7335256,6.8104921 8.239145,6.810485 Z m 2.855855,0 c 0.505623,1.6e-6 0.915513,0.4098868 0.91552,0.91551 -2e-6,0.5056271 -0.409893,0.9155184 -0.91552,0.91552 -0.505627,-1.5e-6 -0.915518,-0.4098929 -0.91552,-0.91552 7e-6,-0.5056232 0.409897,-0.9155085 0.91552,-0.91551 z m -5.7113042,2.70645 c 0.5056232,1.6e-6 0.9155129,0.4098868 0.91552,0.91551 -1.6e-6,0.505627 -0.4098929,0.915518 -0.91552,0.91552 -0.5056271,-2e-6 -0.9155184,-0.409893 -0.91552,-0.91552 7.1e-6,-0.5056232 0.4098968,-0.9155084 0.91552,-0.91551 z m 2.8554492,0 c 0.5056232,1.6e-6 0.9155129,0.4098868 0.91552,0.91551 -1.6e-6,0.505627 -0.4098929,0.915518 -0.91552,0.91552 -0.5056233,-7e-6 -0.9155085,-0.409897 -0.9155101,-0.91552 7.1e-6,-0.5056193 0.4098907,-0.9155029 0.9155101,-0.91551 z m 2.855855,0 c 0.505623,1.6e-6 0.915513,0.4098868 0.91552,0.91551 -2e-6,0.505627 -0.409893,0.915518 -0.91552,0.91552 -0.505627,-2e-6 -0.915518,-0.409893 -0.91552,-0.91552 7e-6,-0.5056232 0.409897,-0.9155085 0.91552,-0.91551 z M 5.3836958,12.22348 c 0.5056271,2e-6 0.9155184,0.409893 0.91552,0.91552 -1.6e-6,0.505627 -0.4098929,0.915518 -0.91552,0.91552 -0.5056271,-2e-6 -0.9155184,-0.409893 -0.91552,-0.91552 1.6e-6,-0.505627 0.4098929,-0.915518 0.91552,-0.91552 z m 2.8554492,0 c 0.5056271,2e-6 0.9155184,0.409893 0.91552,0.91552 -1.6e-6,0.505627 -0.4098929,0.915518 -0.91552,0.91552 -0.5056233,-7e-6 -0.9155085,-0.409897 -0.9155101,-0.91552 1.6e-6,-0.505623 0.4098868,-0.915513 0.9155101,-0.91552 z m 2.855855,0 c 0.505627,2e-6 0.915518,0.409893 0.91552,0.91552 -2e-6,0.505627 -0.409893,0.915518 -0.91552,0.91552 -0.505627,-2e-6 -0.915518,-0.409893 -0.91552,-0.91552 10e-7,-0.505627 0.409893,-0.915518 0.91552,-0.91552 z m 8.207256,4.004255 c -0.0142,2.2e-4 -0.0283,5.2e-4 -0.0425,5.2e-4 l -14.5171602,0 0,4.8314 c 0,1.06944 0.55004,1.94031 1.94031,1.94031 l 10.6790802,0 c 1.4361,0 1.94031,-0.87087 1.94031,-1.94031 l 0,-4.83192 z m -11.0457702,2.85012 7.5165802,0 c 0.38194,0 0.68752,0.30557 0.68752,0.70279 0,0.38194 -0.30558,0.68747 -0.68752,0.68747 l -7.5165802,0 c -0.38195,0 -0.68753,-0.30553 -0.68753,-0.68747 0,-0.38194 0.30558,-0.68752 0.68753,-0.70279 z"
     id="path4174"
     inkscape:connector-curvature="0"
     style="fill:#ffffff"
     sodipodi:nodetypes="ssccsssccsssssscscsccscsccsccssscsccccscscscccccscscsscscscccccscscsssssscscscssssscscsssscccsssssc" />
  <g
     id="g4308"
     transform="translate(0,-1000)" />
</svg>
