<?xml version="1.0" encoding="UTF-8" standalone="no"?>
<!-- Generator: Adobe Illustrator 19.0.0, SVG Export Plug-In . SVG Version: 6.00 Build 0)  -->

<svg
   version="1.1"
   id="Layer_1"
   x="0px"
   y="0px"
   viewBox="0 0 24 24"
   xml:space="preserve"
   inkscape:version="1.2.2 (1:1.2.2+202212051550+b0a8486541)"
   sodipodi:docname="exclamation_mark_square.svg"
   width="24"
   height="24"
   xmlns:inkscape="http://www.inkscape.org/namespaces/inkscape"
   xmlns:sodipodi="http://sodipodi.sourceforge.net/DTD/sodipodi-0.dtd"
   xmlns="http://www.w3.org/2000/svg"
   xmlns:svg="http://www.w3.org/2000/svg"
   xmlns:rdf="http://www.w3.org/1999/02/22-rdf-syntax-ns#"
   xmlns:cc="http://creativecommons.org/ns#"
   xmlns:dc="http://purl.org/dc/elements/1.1/"><metadata
     id="metadata55"><rdf:RDF><cc:Work
         rdf:about=""><dc:format>image/svg+xml</dc:format><dc:type
           rdf:resource="http://purl.org/dc/dcmitype/StillImage" /><dc:title /></cc:Work></rdf:RDF></metadata><defs
     id="defs53" /><sodipodi:namedview
     pagecolor="#ffffff"
     bordercolor="#666666"
     borderopacity="1"
     objecttolerance="10"
     gridtolerance="10"
     guidetolerance="10"
     inkscape:pageopacity="0"
     inkscape:pageshadow="2"
     inkscape:window-width="1920"
     inkscape:window-height="1009"
     id="namedview51"
     showgrid="false"
     inkscape:zoom="12.74"
     inkscape:cx="2.3940345"
     inkscape:cy="5.6122449"
     inkscape:window-x="0"
     inkscape:window-y="30"
     inkscape:window-maximized="1"
     inkscape:current-layer="Layer_1"
     inkscape:showpageshadow="0"
     inkscape:pagecheckerboard="0"
     inkscape:deskcolor="#d1d1d1" /><path
     id="rect456"
     style="fill:#ffffff;fill-opacity:1;stroke:#008080;stroke-width:0;stroke-linecap:round;stroke-linejoin:round;stroke-miterlimit:5.8;opacity:0.99999999"
     d="M 2 1 C 1.4460006 1 1 1.4460006 1 2 L 1 22 C 1 22.553999 1.4460006 23 2 23 L 22 23 C 22.553999 23 23 22.553999 23 22 L 23 2 C 23 1.4460006 22.553999 1 22 1 L 2 1 z M 10 5 L 14 5 L 14 11.142578 L 13.605469 14.490234 L 10.414062 14.490234 L 10 11.142578 L 10 5 z M 10 16.619141 L 14 16.619141 L 14 19 L 10 19 L 10 16.619141 z " /><g
     id="g21"
     transform="translate(0,-487.99899)"
     style="fill:#ff00ff" /><g
     id="g23"
     transform="translate(0,-487.99899)"
     style="fill:#ff00ff" /><g
     id="g25"
     transform="translate(0,-487.99899)"
     style="fill:#ff00ff" /><g
     id="g27"
     transform="translate(0,-487.99899)"
     style="fill:#ff00ff" /><g
     id="g29"
     transform="translate(0,-487.99899)"
     style="fill:#ff00ff" /><g
     id="g31"
     transform="translate(0,-487.99899)"
     style="fill:#ff00ff" /><g
     id="g33"
     transform="translate(0,-487.99899)"
     style="fill:#ff00ff" /><g
     id="g35"
     transform="translate(0,-487.99899)"
     style="fill:#ff00ff" /><g
     id="g37"
     transform="translate(0,-487.99899)"
     style="fill:#ff00ff" /><g
     id="g39"
     transform="translate(0,-487.99899)"
     style="fill:#ff00ff" /><g
     id="g41"
     transform="translate(0,-487.99899)"
     style="fill:#ff00ff" /><g
     id="g43"
     transform="translate(0,-487.99899)"
     style="fill:#ff00ff" /><g
     id="g45"
     transform="translate(0,-487.99899)"
     style="fill:#ff00ff" /><g
     id="g47"
     transform="translate(0,-487.99899)"
     style="fill:#ff00ff" /><g
     id="g49"
     transform="translate(0,-487.99899)"
     style="fill:#ff00ff" /></svg>
