<?xml version="1.0" encoding="UTF-8" standalone="no"?>
<!-- Created with Inkscape (http://www.inkscape.org/) -->

<svg
   xmlns:dc="http://purl.org/dc/elements/1.1/"
   xmlns:cc="http://creativecommons.org/ns#"
   xmlns:rdf="http://www.w3.org/1999/02/22-rdf-syntax-ns#"
   xmlns:svg="http://www.w3.org/2000/svg"
   xmlns="http://www.w3.org/2000/svg"
   xmlns:sodipodi="http://sodipodi.sourceforge.net/DTD/sodipodi-0.dtd"
   xmlns:inkscape="http://www.inkscape.org/namespaces/inkscape"
   width="24"
   height="24"
   viewBox="0 0 6.3499999 6.3500002"
   version="1.1"
   id="svg8"
   inkscape:version="0.92.5 (2060ec1f9f, 2020-04-08)"
   sodipodi:docname="wheelchair.svg">
  <defs
     id="defs2" />
  <sodipodi:namedview
     id="base"
     pagecolor="#ffffff"
     bordercolor="#666666"
     borderopacity="1.0"
     inkscape:pageopacity="0.0"
     inkscape:pageshadow="2"
     inkscape:zoom="19.88"
     inkscape:cx="9.3501006"
     inkscape:cy="9.0160994"
     inkscape:document-units="mm"
     inkscape:current-layer="layer1"
     showgrid="false"
     inkscape:window-width="1920"
     inkscape:window-height="1025"
     inkscape:window-x="0"
     inkscape:window-y="30"
     inkscape:window-maximized="1"
     units="px"
     showborder="true"
     inkscape:showpageshadow="false"
     borderlayer="true"
     showguides="false" />
  <metadata
     id="metadata5">
    <rdf:RDF>
      <cc:Work
         rdf:about="">
        <dc:format>image/svg+xml</dc:format>
        <dc:type
           rdf:resource="http://purl.org/dc/dcmitype/StillImage" />
        <dc:title></dc:title>
      </cc:Work>
    </rdf:RDF>
  </metadata>
  <g
     inkscape:label="Layer 1"
     inkscape:groupmode="layer"
     id="layer1"
     transform="translate(0,-290.64998)">
    <g
       id="g1068"
       style="fill:#ffffff"
       transform="translate(0.32187608,0.13229)">
      <path
         style="opacity:1;fill:#ffffff;fill-opacity:1;stroke:none;stroke-width:2.09166026;stroke-miterlimit:4;stroke-dasharray:none"
         d="M 11.845703 1 C 10.464995 1 9.3457031 2.119263 9.3457031 3.5 C 9.3457031 4.880737 10.464995 6 11.845703 6 C 13.226411 6 14.345703 4.880737 14.345703 3.5 C 14.345703 2.119263 13.226411 1 11.845703 1 z M 12.792969 6.8203125 L 12.125 6.9003906 L 11.453125 6.9667969 C 11.271478 6.9844047 11.139126 7.1397819 11.15625 7.3144531 C 11.19227 7.6098623 11.236597 7.8800522 11.275391 8.1933594 C 11.275836 8.1970473 11.280674 8.1994611 11.28125 8.203125 L 12.003906 14.226562 L 18.109375 14.226562 L 19.195312 19.662109 C 19.205055 19.723198 19.217306 19.780137 19.230469 19.839844 L 19.246094 19.919922 L 19.25 19.919922 C 19.277895 20.036611 19.305121 20.156297 19.332031 20.265625 C 19.385576 20.440239 19.567348 20.538864 19.742188 20.486328 L 20.388672 20.292969 L 21.039062 20.117188 C 21.215332 20.069565 21.317867 19.889319 21.271484 19.712891 C 21.246565 19.625991 21.220723 19.539014 21.195312 19.455078 L 19.75 12.226562 L 19.699219 12.236328 L 19.699219 12.226562 L 13.777344 12.226562 L 13.609375 10.818359 L 17.650391 10.818359 L 17.96875 10.818359 C 18.151135 10.814693 18.295531 10.666926 18.292969 10.484375 L 18.287109 9.8105469 L 18.292969 9.1367188 C 18.295531 8.9541676 18.151135 8.8045608 17.96875 8.8007812 C 17.659373 8.8014238 17.375197 8.8125 17.046875 8.8125 L 17.046875 8.8144531 C 17.042794 8.8144568 17.039227 8.8182076 17.035156 8.8183594 L 13.369141 8.8183594 L 13.162109 7.0917969 C 13.137589 6.9179438 12.97402 6.7977259 12.792969 6.8203125 z M 9.2167969 9.984375 C 9.0336841 9.9687394 8.867239 9.9891694 8.6992188 10.025391 C 5.352258 10.290056 2.7167969 13.084995 2.7167969 16.5 C 2.7167969 20.089871 5.6269438 23 9.2167969 23 C 12.660813 23 15.472004 20.319158 15.695312 16.931641 L 15.701172 16.904297 C 15.70291 16.870281 15.716797 16.851997 15.716797 16.818359 C 15.71542 16.815002 15.710757 16.760425 15.707031 16.708984 C 15.709265 16.638929 15.716797 16.570598 15.716797 16.5 C 15.713131 16.317449 15.565364 16.173136 15.382812 16.175781 L 14.708984 16.183594 L 14.035156 16.175781 C 13.852605 16.173211 13.702998 16.317449 13.699219 16.5 C 13.700509 16.54041 13.702716 16.573855 13.705078 16.609375 C 13.645518 19.042823 11.664556 21 9.2167969 21 C 6.731522 21 4.7167969 18.985304 4.7167969 16.5 C 4.7167969 14.020065 6.7233018 12.010632 9.2011719 12.001953 C 9.2060774 12.002084 9.2119044 12.001825 9.2167969 12.001953 C 9.3991818 11.998287 9.5435781 11.85052 9.5410156 11.667969 L 9.5351562 10.994141 L 9.5410156 10.320312 C 9.5435781 10.137762 9.3991818 9.9881545 9.2167969 9.984375 z "
         transform="matrix(0.26458333,0,0,0.26458333,-0.32187608,290.51769)"
         id="path1036" />
    </g>
    <g
       id="g1063"
       transform="matrix(0.99343831,-0.1098933,0.11436924,0.95455927,-33.007754,13.597244)"
       style="fill:#d35f5f" />
    <g
       style="fill:#d35f5f"
       transform="matrix(0.99343831,-0.1098933,0.11436924,0.95455927,-26.632733,20.597789)"
       id="g1250" />
  </g>
</svg>
